<svg xmlns="http://www.w3.org/2000/svg" viewBox="0 0 522.99 350.59"><defs><style>.cls-1,.cls-3{fill:#ac2343;}.cls-2{fill:#7f8083;}.cls-3{fill-rule:evenodd;}</style></defs><g id="Layer_2" data-name="Layer 2"><g id="Layer_1-2" data-name="Layer 1"><path class="cls-1" d="M13,308a15.57,15.57,0,0,1-.39,3.64,6.76,6.76,0,0,1-1.37,2.76,6,6,0,0,1-2.52,1.73,10.77,10.77,0,0,1-3.85.6,10,10,0,0,1-1.44-.1,10.39,10.39,0,0,1-1.31-.27,8.49,8.49,0,0,1-1-.34,2.53,2.53,0,0,1-.59-.33,2.43,2.43,0,0,1-.24-.32,1.91,1.91,0,0,1-.17-.42,3.42,3.42,0,0,1-.1-.66c0-.26,0-.59,0-1s0-1,0-1.32a3.81,3.81,0,0,1,.12-.85.86.86,0,0,1,.24-.44.66.66,0,0,1,.4-.13,1.12,1.12,0,0,1,.51.15L2,311a7.39,7.39,0,0,0,.85.31,4,4,0,0,0,1.15.15,3.66,3.66,0,0,0,1.15-.17,1.72,1.72,0,0,0,.83-.6,2.87,2.87,0,0,0,.5-1.14,8.24,8.24,0,0,0,.17-1.83V287.27a.57.57,0,0,1,.16-.4,1.1,1.1,0,0,1,.51-.29,5.21,5.21,0,0,1,1-.17c.42,0,.93-.06,1.55-.06s1.13,0,1.54.06a5.92,5.92,0,0,1,1,.17,1.23,1.23,0,0,1,.54.29.6.6,0,0,1,.15.4Z"/><path class="cls-1" d="M48.18,301a20.9,20.9,0,0,1-1,6.62,13.24,13.24,0,0,1-2.89,4.95,12.57,12.57,0,0,1-4.77,3.1A18.55,18.55,0,0,1,33,316.75a20.34,20.34,0,0,1-6.42-.91A11.1,11.1,0,0,1,22,313.07a11.79,11.79,0,0,1-2.74-4.73,22.8,22.8,0,0,1-.91-6.8,20.44,20.44,0,0,1,1-6.49,13.17,13.17,0,0,1,2.9-4.91A12.77,12.77,0,0,1,27,287,18.41,18.41,0,0,1,33.58,286a20.25,20.25,0,0,1,6.32.9,11.12,11.12,0,0,1,4.57,2.76,11.84,11.84,0,0,1,2.78,4.69A21.64,21.64,0,0,1,48.18,301Zm-6.71.32a21.46,21.46,0,0,0-.39-4.26,8.86,8.86,0,0,0-1.33-3.29,6.26,6.26,0,0,0-2.49-2.11,9,9,0,0,0-3.9-.74,8.36,8.36,0,0,0-3.94.83A7.22,7.22,0,0,0,26.86,294a9,9,0,0,0-1.37,3.28,18.72,18.72,0,0,0-.4,4,22.43,22.43,0,0,0,.39,4.38,9.27,9.27,0,0,0,1.31,3.32,6,6,0,0,0,2.48,2.1,9.4,9.4,0,0,0,3.92.72,8.43,8.43,0,0,0,3.94-.82,7.07,7.07,0,0,0,2.56-2.25,9.14,9.14,0,0,0,1.37-3.32A19.34,19.34,0,0,0,41.47,301.33Z"/><path class="cls-1" d="M76.93,315.44a.87.87,0,0,1-.1.42.79.79,0,0,1-.46.29,4.58,4.58,0,0,1-1.07.16c-.47,0-1.11.05-1.93.05s-1.22,0-1.63-.05a4.07,4.07,0,0,1-1-.17,1,1,0,0,1-.49-.32,1.62,1.62,0,0,1-.25-.47l-2.82-6.64c-.34-.75-.68-1.42-1-2a6.83,6.83,0,0,0-1.08-1.46,3.87,3.87,0,0,0-1.38-.88,5,5,0,0,0-1.8-.3H60v11.32a.65.65,0,0,1-.16.42,1.21,1.21,0,0,1-.52.3,6.73,6.73,0,0,1-1,.18,17.2,17.2,0,0,1-3.1,0,6.41,6.41,0,0,1-1-.18,1.11,1.11,0,0,1-.51-.3.64.64,0,0,1-.15-.42v-27a1.79,1.79,0,0,1,.55-1.46,2.07,2.07,0,0,1,1.35-.45h8.16c.82,0,1.51,0,2,.05s1,.06,1.46.11a14.14,14.14,0,0,1,3.42.87,8.59,8.59,0,0,1,2.58,1.62,7,7,0,0,1,1.62,2.37,8.28,8.28,0,0,1,.56,3.13,9,9,0,0,1-.4,2.73,6.81,6.81,0,0,1-1.18,2.19,7.49,7.49,0,0,1-1.93,1.68,10.83,10.83,0,0,1-2.6,1.15,7.12,7.12,0,0,1,1.33.78,6.42,6.42,0,0,1,1.16,1.12,10.27,10.27,0,0,1,1,1.49,20.75,20.75,0,0,1,1,1.89l2.65,5.86c.24.59.4,1,.49,1.28A2.33,2.33,0,0,1,76.93,315.44Zm-8.25-20.17a4.22,4.22,0,0,0-.71-2.48,3.85,3.85,0,0,0-2.31-1.43,7.58,7.58,0,0,0-1.11-.18,15.2,15.2,0,0,0-1.71-.07H60v8.43h3.26a8.13,8.13,0,0,0,2.38-.31,5.1,5.1,0,0,0,1.71-.87,3.64,3.64,0,0,0,1-1.35A4.25,4.25,0,0,0,68.68,295.27Z"/><path class="cls-1" d="M107.79,300.92a19.36,19.36,0,0,1-1.13,7,11.86,11.86,0,0,1-3.26,4.75,13.29,13.29,0,0,1-5.14,2.7,26.81,26.81,0,0,1-7.22.86H83.52a2.07,2.07,0,0,1-1.35-.45,1.78,1.78,0,0,1-.55-1.45V288.4a1.79,1.79,0,0,1,.55-1.46,2.07,2.07,0,0,1,1.35-.45H91.6a23.91,23.91,0,0,1,7.15.93,13.14,13.14,0,0,1,4.94,2.76,11.82,11.82,0,0,1,3,4.51A17.09,17.09,0,0,1,107.79,300.92Zm-6.62.21a14.09,14.09,0,0,0-.53-3.93A8.11,8.11,0,0,0,99,294.05,7.76,7.76,0,0,0,96,292a12.57,12.57,0,0,0-4.75-.75H88v20.22h3.33a13.21,13.21,0,0,0,4.43-.64,7.5,7.5,0,0,0,3-1.94,8.4,8.4,0,0,0,1.8-3.23A15.23,15.23,0,0,0,101.17,301.13Z"/><path class="cls-1" d="M137.67,314a7.41,7.41,0,0,1,.37,1.31.75.75,0,0,1-.2.72,1.65,1.65,0,0,1-1,.3c-.45,0-1.07.06-1.87.06s-1.48,0-1.94,0a5.48,5.48,0,0,1-1.05-.13.94.94,0,0,1-.51-.29,1.66,1.66,0,0,1-.25-.48l-2.12-6H117.33l-2,5.82a1.74,1.74,0,0,1-.25.53,1.09,1.09,0,0,1-.52.35,4,4,0,0,1-1,.17c-.43,0-1,.05-1.69.05a16,16,0,0,1-1.75-.07,1.36,1.36,0,0,1-.87-.34.82.82,0,0,1-.17-.74,6.88,6.88,0,0,1,.36-1.29l9.71-26.37a2.55,2.55,0,0,1,.34-.64,1.2,1.2,0,0,1,.62-.36,4.79,4.79,0,0,1,1.18-.16c.5,0,1.17,0,2,0s1.72,0,2.28,0a5.85,5.85,0,0,1,1.33.16,1.2,1.2,0,0,1,.68.38,2.11,2.11,0,0,1,.36.69Zm-14.45-21.8h0l-4.45,12.63h8.93Z"/><path class="cls-1" d="M168,314.11a2.19,2.19,0,0,1-.19.94,2,2,0,0,1-.53.69,2.09,2.09,0,0,1-.77.4,3.58,3.58,0,0,1-.92.13h-2.72a6.38,6.38,0,0,1-1.48-.16,3.11,3.11,0,0,1-1.14-.59,5.32,5.32,0,0,1-1-1.15,21.53,21.53,0,0,1-1.09-1.87l-7.84-13.9c-.46-.83-.92-1.72-1.39-2.68s-.89-1.89-1.27-2.79h0c.06,1.1.11,2.2.14,3.3s.05,2.22.05,3.39v15.55a.67.67,0,0,1-.13.41,1,1,0,0,1-.46.31,3.82,3.82,0,0,1-.89.2,11.29,11.29,0,0,1-1.44.07,11,11,0,0,1-1.41-.07,3.72,3.72,0,0,1-.88-.2.82.82,0,0,1-.43-.31.74.74,0,0,1-.13-.41V288.65a2,2,0,0,1,.67-1.62,2.56,2.56,0,0,1,1.65-.54h3.43a6.83,6.83,0,0,1,1.55.15,3.34,3.34,0,0,1,1.14.49,4.1,4.1,0,0,1,.94,1,10.81,10.81,0,0,1,.89,1.5l6.14,10.87c.35.66.71,1.3,1.06,1.94s.68,1.27,1,1.91.63,1.26.95,1.87.6,1.23.9,1.84h0c0-1.07-.09-2.19-.11-3.36s0-2.27,0-3.33V287.39a.66.66,0,0,1,.15-.42,1.19,1.19,0,0,1,.49-.32,3.41,3.41,0,0,1,.89-.19,14.19,14.19,0,0,1,1.44-.06,13.27,13.27,0,0,1,1.39.06,3,3,0,0,1,.86.19,1,1,0,0,1,.43.32.76.76,0,0,1,.12.42Z"/><path class="cls-1" d="M181.33,315.39a.6.6,0,0,1-.16.42,1.15,1.15,0,0,1-.52.3,6.56,6.56,0,0,1-1,.18,17.31,17.31,0,0,1-3.11,0,6.48,6.48,0,0,1-1-.18,1.19,1.19,0,0,1-.53-.3.64.64,0,0,1-.15-.42V287.32a.66.66,0,0,1,.15-.42,1.24,1.24,0,0,1,.54-.3,7,7,0,0,1,1-.18c.41,0,.92-.07,1.54-.07s1.15,0,1.56.07a6.56,6.56,0,0,1,1,.18,1.15,1.15,0,0,1,.52.3.61.61,0,0,1,.16.42Z"/><path class="cls-1" d="M214,314a7.21,7.21,0,0,1,.36,1.31.75.75,0,0,1-.19.72,1.65,1.65,0,0,1-.95.3c-.45,0-1.08.06-1.87.06s-1.48,0-1.94,0a5.72,5.72,0,0,1-1.06-.13,1,1,0,0,1-.51-.29,1.44,1.44,0,0,1-.24-.48l-2.12-6H193.64l-2,5.82a1.54,1.54,0,0,1-.26.53,1,1,0,0,1-.51.35,4.08,4.08,0,0,1-1,.17c-.43,0-1,.05-1.69.05a16,16,0,0,1-1.75-.07,1.41,1.41,0,0,1-.88-.34.81.81,0,0,1-.16-.74,6.19,6.19,0,0,1,.36-1.29l9.71-26.37a2.26,2.26,0,0,1,.34-.64,1.2,1.2,0,0,1,.62-.36,4.71,4.71,0,0,1,1.18-.16c.5,0,1.17,0,2,0s1.72,0,2.28,0a5.93,5.93,0,0,1,1.33.16,1.23,1.23,0,0,1,.68.38,2.11,2.11,0,0,1,.36.69Zm-14.46-21.8h0l-4.46,12.63H204Z"/><path class="cls-1" d="M244.36,314.11a2.19,2.19,0,0,1-.19.94,2,2,0,0,1-.52.69,2.22,2.22,0,0,1-.78.4,3.58,3.58,0,0,1-.92.13h-2.72a6.23,6.23,0,0,1-1.47-.16,3.07,3.07,0,0,1-1.15-.59,5.32,5.32,0,0,1-1-1.15,21.53,21.53,0,0,1-1.09-1.87l-7.84-13.9c-.45-.83-.92-1.72-1.39-2.68s-.89-1.89-1.26-2.79H224q.09,1.65.15,3.3c0,1.09,0,2.22,0,3.39v15.55a.67.67,0,0,1-.13.41.91.91,0,0,1-.46.31,3.82,3.82,0,0,1-.89.2,14.54,14.54,0,0,1-2.85,0,3.51,3.51,0,0,1-.87-.2.85.85,0,0,1-.44-.31.73.73,0,0,1-.12-.41V288.65a2,2,0,0,1,.66-1.62,2.56,2.56,0,0,1,1.65-.54h3.43a7,7,0,0,1,1.56.15,3.37,3.37,0,0,1,1.13.49,4.1,4.1,0,0,1,.94,1,11.84,11.84,0,0,1,.9,1.5l6.13,10.87,1.06,1.94c.34.64.68,1.27,1,1.91l.95,1.87c.31.61.61,1.23.9,1.84h0c-.05-1.07-.08-2.19-.11-3.36s0-2.27,0-3.33V287.39a.66.66,0,0,1,.15-.42,1.19,1.19,0,0,1,.49-.32,3.5,3.5,0,0,1,.9-.19,13.84,13.84,0,0,1,1.43-.06,13.27,13.27,0,0,1,1.39.06,3.15,3.15,0,0,1,.87.19,1,1,0,0,1,.42.32.76.76,0,0,1,.12.42Z"/><path class="cls-1" d="M287.07,315.39a.69.69,0,0,1-.15.42,1.27,1.27,0,0,1-.52.3,6.73,6.73,0,0,1-1,.18,13,13,0,0,1-1.54.07,13.76,13.76,0,0,1-1.57-.07,6.08,6.08,0,0,1-1-.18,1.12,1.12,0,0,1-.5-.3.61.61,0,0,1-.17-.42v-12H268.89v12a.59.59,0,0,1-.15.42,1,1,0,0,1-.51.3,6.65,6.65,0,0,1-1,.18,17.31,17.31,0,0,1-3.11,0,6.91,6.91,0,0,1-1-.18,1.21,1.21,0,0,1-.52-.3.65.65,0,0,1-.16-.42V287.32a.67.67,0,0,1,.16-.42,1.21,1.21,0,0,1,.52-.3,6.91,6.91,0,0,1,1-.18c.42,0,.93-.07,1.54-.07s1.16,0,1.57.07a6.65,6.65,0,0,1,1,.18,1,1,0,0,1,.51.3.6.6,0,0,1,.15.42v10.91h11.78V287.32a.63.63,0,0,1,.17-.42,1.12,1.12,0,0,1,.5-.3,6.08,6.08,0,0,1,1-.18c.42,0,.94-.07,1.57-.07s1.14,0,1.54.07a6.73,6.73,0,0,1,1,.18,1.27,1.27,0,0,1,.52.3.72.72,0,0,1,.15.42Z"/><path class="cls-1" d="M322.26,301a20.9,20.9,0,0,1-1,6.62,13.26,13.26,0,0,1-2.9,4.95,12.53,12.53,0,0,1-4.76,3.1,18.55,18.55,0,0,1-6.55,1.07,20.34,20.34,0,0,1-6.42-.91,11.1,11.1,0,0,1-4.56-2.77,11.68,11.68,0,0,1-2.74-4.73,22.48,22.48,0,0,1-.91-6.8,20.44,20.44,0,0,1,1-6.49,13.17,13.17,0,0,1,2.9-4.91,12.77,12.77,0,0,1,4.76-3.1,18.45,18.45,0,0,1,6.58-1.08,20.3,20.3,0,0,1,6.32.9,11.12,11.12,0,0,1,4.57,2.76,12,12,0,0,1,2.78,4.69A21.64,21.64,0,0,1,322.26,301Zm-6.71.32a20.7,20.7,0,0,0-.4-4.26,8.85,8.85,0,0,0-1.32-3.29,6.36,6.36,0,0,0-2.5-2.11,8.91,8.91,0,0,0-3.89-.74,8.3,8.3,0,0,0-3.94.83A7,7,0,0,0,301,294a8.88,8.88,0,0,0-1.38,3.28,18.71,18.71,0,0,0-.41,4,21.64,21.64,0,0,0,.4,4.38,9.09,9.09,0,0,0,1.31,3.32,5.85,5.85,0,0,0,2.48,2.1,9.37,9.37,0,0,0,3.92.72,8.43,8.43,0,0,0,3.94-.82,7.07,7.07,0,0,0,2.56-2.25,9.33,9.33,0,0,0,1.38-3.32A20.05,20.05,0,0,0,315.55,301.33Z"/><path class="cls-1" d="M346.31,307.31a8.83,8.83,0,0,1-.93,4.11,8.62,8.62,0,0,1-2.51,2.95,11.2,11.2,0,0,1-3.69,1.78,16.58,16.58,0,0,1-4.53.6,17.08,17.08,0,0,1-3-.25,19.21,19.21,0,0,1-2.46-.61,10.85,10.85,0,0,1-1.79-.75,5,5,0,0,1-1-.69,1.73,1.73,0,0,1-.46-.86,7.44,7.44,0,0,1-.13-1.62c0-.48,0-.87.05-1.19a3.16,3.16,0,0,1,.15-.78.91.91,0,0,1,.3-.43.69.69,0,0,1,.43-.13,2.18,2.18,0,0,1,1,.38q.62.38,1.59.84a15.47,15.47,0,0,0,2.33.84,11.64,11.64,0,0,0,3.12.38,7.41,7.41,0,0,0,2.09-.27,4.86,4.86,0,0,0,1.57-.74,3.36,3.36,0,0,0,1-1.2,3.55,3.55,0,0,0,.34-1.58,2.67,2.67,0,0,0-.58-1.74,5.75,5.75,0,0,0-1.53-1.28,15.51,15.51,0,0,0-2.12-1.06c-.79-.33-1.62-.68-2.46-1.05a21,21,0,0,1-2.46-1.25,9.69,9.69,0,0,1-2.13-1.68,7.87,7.87,0,0,1-1.52-2.3,8,8,0,0,1-.59-3.2,8.16,8.16,0,0,1,.84-3.75,7.8,7.8,0,0,1,2.27-2.69,9.79,9.79,0,0,1,3.36-1.6,15.61,15.61,0,0,1,4.1-.53,15.34,15.34,0,0,1,2.24.16,17.47,17.47,0,0,1,2.09.44,11,11,0,0,1,1.72.62,4.06,4.06,0,0,1,1,.57,1.88,1.88,0,0,1,.33.39,1.64,1.64,0,0,1,.15.43,4.75,4.75,0,0,1,.09.67c0,.27,0,.6,0,1s0,.82,0,1.12a3.46,3.46,0,0,1-.12.76.92.92,0,0,1-.24.44.65.65,0,0,1-.43.13,2,2,0,0,1-.85-.32c-.39-.21-.86-.45-1.43-.7a15.08,15.08,0,0,0-2-.69,9.41,9.41,0,0,0-2.46-.31,5.89,5.89,0,0,0-1.82.25,3.84,3.84,0,0,0-1.31.66,2.73,2.73,0,0,0-.77,1,3.18,3.18,0,0,0-.25,1.26,2.72,2.72,0,0,0,.56,1.71,5.23,5.23,0,0,0,1.54,1.29,16.41,16.41,0,0,0,2.18,1.06l2.48,1a25.12,25.12,0,0,1,2.48,1.26,9.69,9.69,0,0,1,2.17,1.68,7.78,7.78,0,0,1,1.53,2.29A7.65,7.65,0,0,1,346.31,307.31Z"/><path class="cls-1" d="M372.76,295.52a11.06,11.06,0,0,1-.83,4.44,8.62,8.62,0,0,1-2.41,3.25,10.57,10.57,0,0,1-3.88,2,18.89,18.89,0,0,1-5.42.69H357.6v9.49a.6.6,0,0,1-.16.42,1.21,1.21,0,0,1-.52.3,6.82,6.82,0,0,1-1,.18,13.53,13.53,0,0,1-1.57.07,13.31,13.31,0,0,1-1.54-.07,6.24,6.24,0,0,1-1-.18,1,1,0,0,1-.51-.3.64.64,0,0,1-.15-.42V288.65a2.07,2.07,0,0,1,.6-1.62,2.23,2.23,0,0,1,1.56-.54h7.43c.74,0,1.46,0,2.12.08s1.49.17,2.43.34a11.55,11.55,0,0,1,2.86,1,8.72,8.72,0,0,1,2.47,1.81,7.41,7.41,0,0,1,1.56,2.54A9.69,9.69,0,0,1,372.76,295.52Zm-6.69.44a5.24,5.24,0,0,0-.58-2.58,3.9,3.9,0,0,0-1.44-1.49,4.94,4.94,0,0,0-1.79-.61,15.16,15.16,0,0,0-1.94-.13H357.6v10.09h2.87a7.35,7.35,0,0,0,2.57-.39,4.49,4.49,0,0,0,1.69-1.09,4.88,4.88,0,0,0,1-1.68A6.33,6.33,0,0,0,366.07,296Z"/><path class="cls-1" d="M384.15,315.39a.6.6,0,0,1-.16.42,1.1,1.1,0,0,1-.52.3,6.73,6.73,0,0,1-1,.18,13.15,13.15,0,0,1-1.55.07,13.38,13.38,0,0,1-1.55-.07,6.48,6.48,0,0,1-1-.18,1.25,1.25,0,0,1-.53-.3.64.64,0,0,1-.15-.42V287.32a.66.66,0,0,1,.15-.42,1.24,1.24,0,0,1,.54-.3,6.91,6.91,0,0,1,1-.18c.4,0,.91-.07,1.53-.07s1.15,0,1.55.07a6.73,6.73,0,0,1,1,.18,1.1,1.1,0,0,1,.52.3.61.61,0,0,1,.16.42Z"/><path class="cls-1" d="M412,289a7.53,7.53,0,0,1-.06,1.14,3.61,3.61,0,0,1-.17.76,1.09,1.09,0,0,1-.31.42.67.67,0,0,1-.4.14h-7.89v24a.6.6,0,0,1-.16.42,1.1,1.1,0,0,1-.52.3,6.73,6.73,0,0,1-1,.18,13.49,13.49,0,0,1-1.55.07,13.08,13.08,0,0,1-1.54-.07,6.41,6.41,0,0,1-1-.18,1.25,1.25,0,0,1-.53-.3.64.64,0,0,1-.15-.42v-24h-7.88a.64.64,0,0,1-.42-.14,1.07,1.07,0,0,1-.29-.42,2.36,2.36,0,0,1-.18-.76,8.9,8.9,0,0,1-.07-1.14,9.42,9.42,0,0,1,.07-1.17,2.36,2.36,0,0,1,.18-.77,1,1,0,0,1,.29-.41.7.7,0,0,1,.42-.13H411a.73.73,0,0,1,.4.13,1,1,0,0,1,.31.41,3.58,3.58,0,0,1,.17.77A8,8,0,0,1,412,289Z"/><path class="cls-1" d="M437.58,314a8.15,8.15,0,0,1,.36,1.31.8.8,0,0,1-.19.72,1.72,1.72,0,0,1-1,.3c-.45,0-1.07.06-1.87.06s-1.47,0-1.93,0a5.49,5.49,0,0,1-1.06-.13,1,1,0,0,1-.52-.29,1.65,1.65,0,0,1-.23-.48l-2.13-6H417.23l-2,5.82a1.74,1.74,0,0,1-.25.53,1.09,1.09,0,0,1-.52.35,4,4,0,0,1-1,.17c-.43,0-1,.05-1.69.05a15.77,15.77,0,0,1-1.75-.07,1.36,1.36,0,0,1-.88-.34.85.85,0,0,1-.18-.74,9.17,9.17,0,0,1,.37-1.29l9.71-26.37a2.55,2.55,0,0,1,.34-.64,1.24,1.24,0,0,1,.63-.36,4.56,4.56,0,0,1,1.17-.16c.51,0,1.17,0,2,0s1.72,0,2.29,0a5.83,5.83,0,0,1,1.32.16,1.27,1.27,0,0,1,.69.38,2.33,2.33,0,0,1,.35.69Zm-14.47-21.8h0l-4.45,12.63h8.93Z"/><path class="cls-1" d="M459.28,313.69a9.35,9.35,0,0,1-.06,1.16,3.43,3.43,0,0,1-.18.79,1.1,1.1,0,0,1-.31.44.68.68,0,0,1-.42.14H443.88a2,2,0,0,1-1.35-.45,1.72,1.72,0,0,1-.55-1.45v-27a.66.66,0,0,1,.15-.42,1.25,1.25,0,0,1,.53-.3,6.48,6.48,0,0,1,1-.18c.41,0,.93-.07,1.55-.07s1.15,0,1.55.07a6.73,6.73,0,0,1,1,.18,1.15,1.15,0,0,1,.52.3.61.61,0,0,1,.16.42v23.91h9.91a.68.68,0,0,1,.42.13,1,1,0,0,1,.31.41,3.15,3.15,0,0,1,.18.76A9.47,9.47,0,0,1,459.28,313.69Z"/><path class="cls-1" d="M469.48,315.39a.6.6,0,0,1-.16.42,1.21,1.21,0,0,1-.52.3,6.73,6.73,0,0,1-1,.18,13.15,13.15,0,0,1-1.55.07,13.38,13.38,0,0,1-1.55-.07,6.91,6.91,0,0,1-1-.18,1.27,1.27,0,0,1-.52-.3.59.59,0,0,1-.15-.42V287.32a.6.6,0,0,1,.15-.42,1.24,1.24,0,0,1,.54-.3,6.73,6.73,0,0,1,1-.18c.41,0,.92-.07,1.54-.07s1.15,0,1.55.07a6.73,6.73,0,0,1,1,.18,1.21,1.21,0,0,1,.52.3.61.61,0,0,1,.16.42Z"/><path class="cls-1" d="M497.29,289a7.53,7.53,0,0,1-.06,1.14,3,3,0,0,1-.18.76,1,1,0,0,1-.3.42.69.69,0,0,1-.4.14h-7.89v24a.6.6,0,0,1-.16.42,1.21,1.21,0,0,1-.52.3,6.65,6.65,0,0,1-1,.18,17,17,0,0,1-3.08,0,6.41,6.41,0,0,1-1-.18,1.25,1.25,0,0,1-.53-.3.64.64,0,0,1-.15-.42v-24h-7.89a.64.64,0,0,1-.41-.14.9.9,0,0,1-.29-.42,2.62,2.62,0,0,1-.19-.76,9.12,9.12,0,0,1-.06-1.14,9.64,9.64,0,0,1,.06-1.17,2.62,2.62,0,0,1,.19-.77.82.82,0,0,1,.29-.41.69.69,0,0,1,.41-.13h22.2a.76.76,0,0,1,.4.13.9.9,0,0,1,.3.41,3,3,0,0,1,.18.77A8,8,0,0,1,497.29,289Z"/><path class="cls-1" d="M513.75,304.94v10.45a.61.61,0,0,1-.17.42,1.1,1.1,0,0,1-.52.3,6.48,6.48,0,0,1-1,.18,13.49,13.49,0,0,1-1.55.07,13.34,13.34,0,0,1-1.56-.07,7,7,0,0,1-1-.18,1,1,0,0,1-.52-.3.64.64,0,0,1-.15-.42V304.94l-8.62-16.2a7.58,7.58,0,0,1-.59-1.32.63.63,0,0,1,.14-.71,1.89,1.89,0,0,1,1-.3c.5,0,1.2-.06,2.09-.06s1.35,0,1.79,0a4.77,4.77,0,0,1,1.06.17,1.45,1.45,0,0,1,.57.33,2.66,2.66,0,0,1,.35.54l3.51,7.3c.33.71.67,1.45,1,2.23s.68,1.6,1,2.46h0c.31-.83.63-1.64,1-2.42s.64-1.52.94-2.23l3.46-7.26a2,2,0,0,1,.3-.58,1.26,1.26,0,0,1,.55-.36,3.74,3.74,0,0,1,1-.18c.42,0,1,0,1.68,0,.92,0,1.64,0,2.15.06a1.93,1.93,0,0,1,1,.3.63.63,0,0,1,.13.73,8.72,8.72,0,0,1-.58,1.3Z"/><path class="cls-1" d="M127.46,332.62q0,.44,0,.75a1.74,1.74,0,0,1-.1.48.68.68,0,0,1-.15.27.28.28,0,0,1-.2.09h-5.24v5.17h4.92a.32.32,0,0,1,.19.07.58.58,0,0,1,.16.26,2.08,2.08,0,0,1,.1.48c0,.19,0,.44,0,.73s0,.55,0,.75a2.46,2.46,0,0,1-.1.49.57.57,0,0,1-.16.27.25.25,0,0,1-.19.09h-4.92v7.16a.49.49,0,0,1-.08.28.63.63,0,0,1-.26.21,2.4,2.4,0,0,1-.51.12,7.72,7.72,0,0,1-1.57,0,2.26,2.26,0,0,1-.51-.12.63.63,0,0,1-.26-.21.42.42,0,0,1-.08-.28V332.25a1.37,1.37,0,0,1,.27-.95.94.94,0,0,1,.69-.29H127a.32.32,0,0,1,.2.08.68.68,0,0,1,.15.27,1.82,1.82,0,0,1,.1.5C127.45,332.06,127.46,332.32,127.46,332.62Z"/><path class="cls-1" d="M144.36,340.41a16.93,16.93,0,0,1-.5,4.28,9.26,9.26,0,0,1-1.47,3.2,6.58,6.58,0,0,1-2.42,2,7.71,7.71,0,0,1-3.35.69,8.39,8.39,0,0,1-3.26-.59,5.6,5.6,0,0,1-2.32-1.79,8.25,8.25,0,0,1-1.4-3.06,18.31,18.31,0,0,1-.47-4.4,16.34,16.34,0,0,1,.5-4.2,9,9,0,0,1,1.48-3.17,6.52,6.52,0,0,1,2.42-2,7.54,7.54,0,0,1,3.35-.7,8.26,8.26,0,0,1,3.22.58,5.74,5.74,0,0,1,2.33,1.78,8.48,8.48,0,0,1,1.41,3A17.33,17.33,0,0,1,144.36,340.41Zm-3.42.2a17.65,17.65,0,0,0-.2-2.75,6.59,6.59,0,0,0-.68-2.13,3.58,3.58,0,0,0-1.27-1.37,3.77,3.77,0,0,0-2-.48,3.55,3.55,0,0,0-2,.54,4,4,0,0,0-1.3,1.45,6.87,6.87,0,0,0-.7,2.12,16.08,16.08,0,0,0-.21,2.56,18.45,18.45,0,0,0,.2,2.83,7.32,7.32,0,0,0,.67,2.16,3.48,3.48,0,0,0,1.27,1.36,3.86,3.86,0,0,0,2,.46,3.62,3.62,0,0,0,2-.53,4,4,0,0,0,1.3-1.46,6.71,6.71,0,0,0,.7-2.15A15.42,15.42,0,0,0,140.94,340.61Z"/><path class="cls-1" d="M159,349.74a.61.61,0,0,1-.05.28.4.4,0,0,1-.23.18,2.51,2.51,0,0,1-.55.11c-.24,0-.56,0-1,0s-.62,0-.83,0a1.66,1.66,0,0,1-.49-.12.52.52,0,0,1-.25-.2,1.81,1.81,0,0,1-.13-.31l-1.43-4.29c-.18-.49-.35-.92-.51-1.3a4.17,4.17,0,0,0-.56-.94,2,2,0,0,0-.69-.57,2.08,2.08,0,0,0-.92-.2h-1v7.33a.43.43,0,0,1-.08.27.54.54,0,0,1-.26.19,2.29,2.29,0,0,1-.5.12,5.82,5.82,0,0,1-.79,0,5.91,5.91,0,0,1-.79,0,2.15,2.15,0,0,1-.5-.12.54.54,0,0,1-.26-.19.5.5,0,0,1-.07-.27V332.25a1.37,1.37,0,0,1,.27-.95.94.94,0,0,1,.69-.29h4.15c.42,0,.77,0,1,0a7.52,7.52,0,0,1,.75.08,5.64,5.64,0,0,1,1.74.56,4.22,4.22,0,0,1,1.31,1.05,4.69,4.69,0,0,1,.83,1.53,6.6,6.6,0,0,1,.28,2,7.4,7.4,0,0,1-.2,1.76,4.92,4.92,0,0,1-.61,1.42,4.35,4.35,0,0,1-1,1.08,5.09,5.09,0,0,1-1.33.75,4.56,4.56,0,0,1,.68.5,3.92,3.92,0,0,1,.59.72,9.61,9.61,0,0,1,.53,1q.24.54.48,1.23l1.35,3.79a8.51,8.51,0,0,1,.25.82A1.91,1.91,0,0,1,159,349.74Zm-4.2-13.05a3.24,3.24,0,0,0-.36-1.6,1.92,1.92,0,0,0-1.18-.92,2.21,2.21,0,0,0-.56-.12,5.07,5.07,0,0,0-.87-.05h-1.47v5.45H152a3.25,3.25,0,0,0,1.22-.2,2.2,2.2,0,0,0,1.38-1.43A3.35,3.35,0,0,0,154.79,336.69Z"/><path class="cls-1" d="M180,334c0,.29,0,.53,0,.74a2.38,2.38,0,0,1-.09.5.49.49,0,0,1-.14.26.25.25,0,0,1-.19.07,1.15,1.15,0,0,1-.52-.26,7.08,7.08,0,0,0-.95-.58,8.35,8.35,0,0,0-1.42-.58,6.18,6.18,0,0,0-1.92-.27,4.57,4.57,0,0,0-2.1.48,4.7,4.7,0,0,0-1.61,1.37,6.4,6.4,0,0,0-1,2.13,9.77,9.77,0,0,0-.36,2.74,10.5,10.5,0,0,0,.36,2.9,6.39,6.39,0,0,0,1,2.11,4.25,4.25,0,0,0,1.58,1.28,4.82,4.82,0,0,0,2,.43,3.91,3.91,0,0,0,1.08-.15,3.61,3.61,0,0,0,1-.45v-4.46h-3c-.15,0-.26-.11-.35-.33a3.78,3.78,0,0,1-.12-1.14,6.81,6.81,0,0,1,0-.7,2,2,0,0,1,.09-.45.59.59,0,0,1,.15-.25.27.27,0,0,1,.2-.09h5.41a.74.74,0,0,1,.36.09.76.76,0,0,1,.27.24,1.17,1.17,0,0,1,.18.39,2.2,2.2,0,0,1,.06.53v7.66a2.06,2.06,0,0,1-.13.78,1,1,0,0,1-.53.53,9.85,9.85,0,0,1-1,.4,12.45,12.45,0,0,1-1.23.36c-.43.09-.86.17-1.29.22a11.38,11.38,0,0,1-1.31.07,8.55,8.55,0,0,1-3.44-.66,7,7,0,0,1-2.57-1.91,8.71,8.71,0,0,1-1.61-3.07,15.28,15.28,0,0,1,0-8.34,9.25,9.25,0,0,1,1.69-3.19,7.23,7.23,0,0,1,2.63-2,8.31,8.31,0,0,1,3.43-.7,9.22,9.22,0,0,1,1.9.18,9,9,0,0,1,1.49.41,5.49,5.49,0,0,1,1.06.53,2.74,2.74,0,0,1,.59.49,1.42,1.42,0,0,1,.25.58A7.62,7.62,0,0,1,180,334Z"/><path class="cls-1" d="M192.79,348.71c0,.29,0,.53,0,.73a2.31,2.31,0,0,1-.09.47.61.61,0,0,1-.16.26.32.32,0,0,1-.2.08h-8.06a.91.91,0,0,1-.68-.29,1.33,1.33,0,0,1-.28-.95V332.25a1.32,1.32,0,0,1,.28-.95.91.91,0,0,1,.68-.29h8a.37.37,0,0,1,.2.07.85.85,0,0,1,.15.26,2.58,2.58,0,0,1,.09.48,7.39,7.39,0,0,1,0,.74c0,.27,0,.51,0,.71a2.2,2.2,0,0,1-.09.46.85.85,0,0,1-.15.26.27.27,0,0,1-.2.08h-5.72v4.7h4.84a.37.37,0,0,1,.21.08.66.66,0,0,1,.15.25,2.88,2.88,0,0,1,.1.47c0,.19,0,.43,0,.7s0,.53,0,.72a3.09,3.09,0,0,1-.1.45.5.5,0,0,1-.15.24.37.37,0,0,1-.21.08h-4.84v5.42h5.77a.32.32,0,0,1,.2.08.59.59,0,0,1,.16.27,2.18,2.18,0,0,1,.09.47A7,7,0,0,1,192.79,348.71Z"/><path class="cls-1" d="M208.89,348.88a1.7,1.7,0,0,1-.1.61,1.33,1.33,0,0,1-.26.45,1.12,1.12,0,0,1-.4.25,1.27,1.27,0,0,1-.47.09h-1.38a2.44,2.44,0,0,1-.76-.11,1.36,1.36,0,0,1-.58-.38,3.28,3.28,0,0,1-.51-.74c-.16-.31-.35-.72-.56-1.21l-4-9c-.23-.53-.47-1.11-.71-1.73s-.45-1.22-.64-1.8h0c0,.71.05,1.42.07,2.13s0,1.44,0,2.19V349.7a.44.44,0,0,1-.07.26.53.53,0,0,1-.23.21,1.79,1.79,0,0,1-.45.12,4.9,4.9,0,0,1-.73,0,4.84,4.84,0,0,1-.72,0,1.79,1.79,0,0,1-.45-.12.56.56,0,0,1-.22-.21.53.53,0,0,1-.06-.26V332.41a1.43,1.43,0,0,1,.34-1.05,1.15,1.15,0,0,1,.84-.35h1.74a2.64,2.64,0,0,1,.8.1,1.47,1.47,0,0,1,.57.32,2.24,2.24,0,0,1,.48.61,9.27,9.27,0,0,1,.46,1l3.12,7,.54,1.26c.18.41.35.82.52,1.23s.32.82.48,1.21.31.79.46,1.19h0c0-.69,0-1.42-.06-2.17s0-1.47,0-2.16v-9a.5.5,0,0,1,.07-.27.52.52,0,0,1,.25-.2,1,1,0,0,1,.45-.13,5,5,0,0,1,.73,0,4.69,4.69,0,0,1,.71,0,1,1,0,0,1,.44.13.48.48,0,0,1,.22.2.6.6,0,0,1,.06.27Z"/><path class="cls-1" d="M221.89,348.71c0,.29,0,.53,0,.73a2.31,2.31,0,0,1-.09.47.89.89,0,0,1-.16.26.32.32,0,0,1-.2.08h-8.06a.94.94,0,0,1-.69-.29,1.38,1.38,0,0,1-.27-.95V332.25a1.37,1.37,0,0,1,.27-.95.94.94,0,0,1,.69-.29h8a.32.32,0,0,1,.19.07.58.58,0,0,1,.15.26,1.92,1.92,0,0,1,.1.48,7.39,7.39,0,0,1,0,.74c0,.27,0,.51,0,.71a1.66,1.66,0,0,1-.1.46.58.58,0,0,1-.15.26.24.24,0,0,1-.19.08h-5.73v4.7h4.85a.32.32,0,0,1,.2.08.67.67,0,0,1,.16.25,2.18,2.18,0,0,1,.09.47,7,7,0,0,1,0,.7,7.1,7.1,0,0,1,0,.72,2.23,2.23,0,0,1-.09.45.5.5,0,0,1-.16.24.32.32,0,0,1-.2.08h-4.85v5.42h5.78a.32.32,0,0,1,.2.08.83.83,0,0,1,.16.27,2.18,2.18,0,0,1,.09.47A7,7,0,0,1,221.89,348.71Z"/><path class="cls-1" d="M236.66,349.74a.61.61,0,0,1,0,.28.4.4,0,0,1-.23.18,2.38,2.38,0,0,1-.55.11c-.24,0-.56,0-1,0s-.62,0-.83,0a1.66,1.66,0,0,1-.49-.12.52.52,0,0,1-.25-.2,1.81,1.81,0,0,1-.13-.31l-1.43-4.29c-.18-.49-.35-.92-.51-1.3a4.16,4.16,0,0,0-.55-.94,2.1,2.1,0,0,0-.7-.57,2.08,2.08,0,0,0-.92-.2h-1v7.33a.43.43,0,0,1-.08.27.54.54,0,0,1-.26.19,2.29,2.29,0,0,1-.5.12,5.72,5.72,0,0,1-.79,0,5.91,5.91,0,0,1-.79,0,2.15,2.15,0,0,1-.5-.12.54.54,0,0,1-.26-.19.5.5,0,0,1-.07-.27V332.25a1.37,1.37,0,0,1,.27-.95.94.94,0,0,1,.69-.29h4.15q.63,0,1.05,0c.27,0,.51,0,.74.08a5.64,5.64,0,0,1,1.74.56,4.22,4.22,0,0,1,1.31,1.05,4.51,4.51,0,0,1,.83,1.53,6.6,6.6,0,0,1,.28,2,7.4,7.4,0,0,1-.2,1.76,4.92,4.92,0,0,1-.61,1.42,4.35,4.35,0,0,1-1,1.08,4.93,4.93,0,0,1-1.33.75,4.56,4.56,0,0,1,.68.5,3.92,3.92,0,0,1,.59.72,8,8,0,0,1,.53,1,12.7,12.7,0,0,1,.48,1.23l1.35,3.79a8.51,8.51,0,0,1,.25.82A1.91,1.91,0,0,1,236.66,349.74Zm-4.2-13.05a3.24,3.24,0,0,0-.36-1.6,1.93,1.93,0,0,0-1.17-.92,2.39,2.39,0,0,0-.57-.12,5.07,5.07,0,0,0-.87-.05H228v5.45h1.66a3.25,3.25,0,0,0,1.22-.2,2.29,2.29,0,0,0,.87-.56,2.46,2.46,0,0,0,.52-.87A3.62,3.62,0,0,0,232.46,336.69Z"/><path class="cls-1" d="M252.19,348.79a7,7,0,0,1,.19.85.62.62,0,0,1-.1.47.83.83,0,0,1-.49.19c-.23,0-.55,0-.95,0s-.75,0-1,0a1.79,1.79,0,0,1-.55-.09.47.47,0,0,1-.26-.18,1.34,1.34,0,0,1-.12-.31l-1.08-3.87h-6l-1,3.76a1,1,0,0,1-.13.35.48.48,0,0,1-.26.22,1.66,1.66,0,0,1-.51.12c-.21,0-.5,0-.85,0a7.08,7.08,0,0,1-.9,0,.54.54,0,0,1-.53-.7,5.08,5.08,0,0,1,.19-.83l4.94-17.07a2.31,2.31,0,0,1,.17-.41.65.65,0,0,1,.32-.23,2.39,2.39,0,0,1,.6-.11l1,0,1.16,0a3.2,3.2,0,0,1,.68.11.71.71,0,0,1,.35.24,2,2,0,0,1,.17.45Zm-7.36-14.11h0l-2.27,8.18h4.55Z"/><path class="cls-1" d="M263.24,348.61q0,.45,0,.75a2.64,2.64,0,0,1-.09.51.71.71,0,0,1-.16.29.29.29,0,0,1-.21.09H255.4a.93.93,0,0,1-.69-.29,1.33,1.33,0,0,1-.28-.95V331.55a.48.48,0,0,1,.08-.27.64.64,0,0,1,.27-.2,3,3,0,0,1,.5-.11,5.56,5.56,0,0,1,.78-.05,5.66,5.66,0,0,1,.8.05,3.21,3.21,0,0,1,.5.11.55.55,0,0,1,.26.2.41.41,0,0,1,.08.27V347h5.05a.32.32,0,0,1,.21.08.69.69,0,0,1,.16.27,2.54,2.54,0,0,1,.09.49Q263.24,348.16,263.24,348.61Z"/><path class="cls-1" d="M280.4,344.48a7,7,0,0,1-.46,2.66,5.53,5.53,0,0,1-1.28,1.91,5.42,5.42,0,0,1-1.88,1.15,6.75,6.75,0,0,1-2.31.39,6.85,6.85,0,0,1-1.54-.17,7.22,7.22,0,0,1-1.26-.39,5.1,5.1,0,0,1-.91-.48,3,3,0,0,1-.53-.45,1.22,1.22,0,0,1-.23-.55,7,7,0,0,1-.06-1.05c0-.31,0-.57,0-.78a2.75,2.75,0,0,1,.08-.5.66.66,0,0,1,.15-.28.33.33,0,0,1,.22-.08,1,1,0,0,1,.49.24,7.45,7.45,0,0,0,.81.55,6.5,6.5,0,0,0,1.18.54,4.82,4.82,0,0,0,1.59.25,3,3,0,0,0,1.07-.18,2.22,2.22,0,0,0,.8-.48,2.06,2.06,0,0,0,.5-.77,3,3,0,0,0,.18-1,2,2,0,0,0-.31-1.12A3.31,3.31,0,0,0,276,343a8.81,8.81,0,0,0-1.09-.68l-1.25-.68a11.11,11.11,0,0,1-1.25-.81,5.24,5.24,0,0,1-1.86-2.58,6.29,6.29,0,0,1-.3-2.07,6.51,6.51,0,0,1,.43-2.43,4.9,4.9,0,0,1,1.15-1.74,4.72,4.72,0,0,1,1.71-1,6.27,6.27,0,0,1,2.09-.34,7.19,7.19,0,0,1,1.13.1,7.57,7.57,0,0,1,1.07.28,5.15,5.15,0,0,1,.88.41,2,2,0,0,1,.51.37,1.23,1.23,0,0,1,.17.25,1.26,1.26,0,0,1,.07.28,2.31,2.31,0,0,1,.05.43c0,.17,0,.39,0,.64s0,.53,0,.74a2.84,2.84,0,0,1-.06.48.79.79,0,0,1-.12.29.34.34,0,0,1-.23.08,1.05,1.05,0,0,1-.43-.2,6.78,6.78,0,0,0-.73-.46,6.24,6.24,0,0,0-1-.44,3.62,3.62,0,0,0-1.26-.2,2.67,2.67,0,0,0-.93.15,1.89,1.89,0,0,0-.66.43,1.94,1.94,0,0,0-.39.67,2.41,2.41,0,0,0-.13.81,2,2,0,0,0,.29,1.11,3.06,3.06,0,0,0,.78.83,7.45,7.45,0,0,0,1.11.68l1.26.68a11.23,11.23,0,0,1,1.26.81,5.21,5.21,0,0,1,1.11,1.09,5.39,5.39,0,0,1,.78,1.49A6.32,6.32,0,0,1,280.4,344.48Z"/><path class="cls-1" d="M296,343.08a10.66,10.66,0,0,1-.43,3.17,6.44,6.44,0,0,1-1.27,2.36,5.3,5.3,0,0,1-2.09,1.47,7.43,7.43,0,0,1-2.85.51,7.7,7.7,0,0,1-2.71-.45,5.17,5.17,0,0,1-2-1.38,6.14,6.14,0,0,1-1.26-2.3,10.32,10.32,0,0,1-.44-3.22V331.55a.47.47,0,0,1,.07-.27.53.53,0,0,1,.27-.2,3.65,3.65,0,0,1,.49-.11,5.82,5.82,0,0,1,.81-.05,5.51,5.51,0,0,1,.77.05,3,3,0,0,1,.5.11.55.55,0,0,1,.26.2.42.42,0,0,1,.09.27v11.36a7.33,7.33,0,0,0,.23,2,4,4,0,0,0,.67,1.39,2.89,2.89,0,0,0,1.06.82,3.35,3.35,0,0,0,1.37.28,3.4,3.4,0,0,0,1.38-.28,2.93,2.93,0,0,0,1-.83,4.07,4.07,0,0,0,.64-1.34,6.24,6.24,0,0,0,.23-1.8V331.55a.48.48,0,0,1,.08-.27.5.5,0,0,1,.26-.2,3,3,0,0,1,.5-.11,5.56,5.56,0,0,1,.78-.05,5.35,5.35,0,0,1,.78.05,3,3,0,0,1,.49.11.5.5,0,0,1,.26.2.47.47,0,0,1,.07.27Z"/><path class="cls-1" d="M310.44,336.85a8.72,8.72,0,0,1-.42,2.87,5.46,5.46,0,0,1-1.22,2.1,5.2,5.2,0,0,1-2,1.31,7.89,7.89,0,0,1-2.75.44h-1.35v6.14a.5.5,0,0,1-.07.27.62.62,0,0,1-.27.19,2.29,2.29,0,0,1-.5.12,5.72,5.72,0,0,1-.79,0,5.91,5.91,0,0,1-.79,0,2.15,2.15,0,0,1-.5-.12.54.54,0,0,1-.26-.19.61.61,0,0,1-.08-.27v-17.3a1.57,1.57,0,0,1,.31-1.05,1,1,0,0,1,.8-.35h3.78c.38,0,.74,0,1.08.05a11.24,11.24,0,0,1,1.23.22,4.89,4.89,0,0,1,1.46.64,4.64,4.64,0,0,1,1.26,1.16,5.44,5.44,0,0,1,.8,1.66A8,8,0,0,1,310.44,336.85Zm-3.4.28a4,4,0,0,0-.3-1.66,2.45,2.45,0,0,0-.73-1,2.21,2.21,0,0,0-.91-.39,5.37,5.37,0,0,0-1-.08h-1.39v6.52h1.47a3,3,0,0,0,1.31-.25,2.35,2.35,0,0,0,.86-.7,3.31,3.31,0,0,0,.5-1.09A5,5,0,0,0,307,337.13Z"/><path class="cls-1" d="M324,336.85a8.72,8.72,0,0,1-.42,2.87,5.59,5.59,0,0,1-1.22,2.1,5.2,5.2,0,0,1-2,1.31,7.91,7.91,0,0,1-2.76.44h-1.34v6.14a.43.43,0,0,1-.08.27.54.54,0,0,1-.26.19,2.29,2.29,0,0,1-.5.12,5.72,5.72,0,0,1-.79,0,6,6,0,0,1-.79,0,2.15,2.15,0,0,1-.5-.12.54.54,0,0,1-.26-.19.5.5,0,0,1-.08-.27v-17.3a1.57,1.57,0,0,1,.31-1.05,1,1,0,0,1,.8-.35h3.78c.38,0,.74,0,1.08.05a11.24,11.24,0,0,1,1.23.22,4.89,4.89,0,0,1,1.46.64,4.33,4.33,0,0,1,1.25,1.16,5,5,0,0,1,.8,1.66A7.61,7.61,0,0,1,324,336.85Zm-3.4.28a4,4,0,0,0-.3-1.66,2.45,2.45,0,0,0-.73-1,2.21,2.21,0,0,0-.91-.39,5.37,5.37,0,0,0-1-.08h-1.39v6.52h1.47a3,3,0,0,0,1.3-.25,2.2,2.2,0,0,0,.86-.7,3.13,3.13,0,0,0,.51-1.09A5,5,0,0,0,320.55,337.13Z"/><path class="cls-1" d="M335.29,348.61q0,.45,0,.75a3.53,3.53,0,0,1-.1.51.71.71,0,0,1-.15.29.31.31,0,0,1-.22.09h-7.35a.91.91,0,0,1-.68-.29,1.33,1.33,0,0,1-.29-.95V331.55a.42.42,0,0,1,.09-.27.53.53,0,0,1,.27-.2,2.75,2.75,0,0,1,.5-.11,6.19,6.19,0,0,1,1.57,0,3,3,0,0,1,.5.11.53.53,0,0,1,.27.2.41.41,0,0,1,.08.27V347h5a.35.35,0,0,1,.22.08.68.68,0,0,1,.15.27,3.47,3.47,0,0,1,.1.49Q335.29,348.16,335.29,348.61Z"/><path class="cls-1" d="M340.48,349.71a.5.5,0,0,1-.07.27.62.62,0,0,1-.27.19,2.45,2.45,0,0,1-.5.12,5.72,5.72,0,0,1-.79,0,5.82,5.82,0,0,1-.79,0,2.29,2.29,0,0,1-.5-.12.57.57,0,0,1-.27-.19.5.5,0,0,1-.08-.27V331.55a.48.48,0,0,1,.08-.27.64.64,0,0,1,.27-.2,3.37,3.37,0,0,1,.51-.11,6.19,6.19,0,0,1,1.57,0,3.49,3.49,0,0,1,.5.11.64.64,0,0,1,.27.2.47.47,0,0,1,.07.27Z"/><path class="cls-1" d="M353.48,348.71c0,.29,0,.53,0,.73a2.24,2.24,0,0,1-.1.47.6.6,0,0,1-.15.26.32.32,0,0,1-.21.08h-8.05a.91.91,0,0,1-.68-.29A1.29,1.29,0,0,1,344,349V332.25a1.27,1.27,0,0,1,.29-.95.91.91,0,0,1,.68-.29h8a.37.37,0,0,1,.2.07.69.69,0,0,1,.14.26,3.61,3.61,0,0,1,.1.48,7.39,7.39,0,0,1,0,.74c0,.27,0,.51,0,.71a3,3,0,0,1-.1.46.69.69,0,0,1-.14.26.27.27,0,0,1-.2.08h-5.73v4.7h4.84a.32.32,0,0,1,.21.08.56.56,0,0,1,.15.25,1.66,1.66,0,0,1,.1.47,7,7,0,0,1,0,.7,7.1,7.1,0,0,1,0,.72,1.67,1.67,0,0,1-.1.45.43.43,0,0,1-.15.24.32.32,0,0,1-.21.08h-4.84v5.42H353a.32.32,0,0,1,.21.08.58.58,0,0,1,.15.27,2.1,2.1,0,0,1,.1.47A7,7,0,0,1,353.48,348.71Z"/><path class="cls-1" d="M365.61,344.48a6.83,6.83,0,0,1-.47,2.66,5.51,5.51,0,0,1-1.27,1.91A5.37,5.37,0,0,1,362,350.2a6.73,6.73,0,0,1-2.3.39,6.88,6.88,0,0,1-1.55-.17,7.5,7.5,0,0,1-1.26-.39,4.67,4.67,0,0,1-.9-.48,2.38,2.38,0,0,1-.53-.45,1.12,1.12,0,0,1-.23-.55,6.81,6.81,0,0,1-.07-1.05q0-.47,0-.78a2.86,2.86,0,0,1,.07-.5.67.67,0,0,1,.16-.28.32.32,0,0,1,.21-.08,1,1,0,0,1,.5.24,6.47,6.47,0,0,0,2,1.09,4.82,4.82,0,0,0,1.59.25,2.91,2.91,0,0,0,1.06-.18,2.06,2.06,0,0,0,.8-.48,1.84,1.84,0,0,0,.5-.77,2.82,2.82,0,0,0,.18-1,2,2,0,0,0-.3-1.12,3.18,3.18,0,0,0-.77-.83,7.53,7.53,0,0,0-1.09-.68l-1.24-.68a10.39,10.39,0,0,1-1.26-.81,5.32,5.32,0,0,1-1.08-1.09,5.39,5.39,0,0,1-.78-1.49,7.09,7.09,0,0,1,.14-4.5A4.77,4.77,0,0,1,357,332a4.68,4.68,0,0,1,1.7-1,6.32,6.32,0,0,1,2.09-.34,7.31,7.31,0,0,1,1.14.1,7.94,7.94,0,0,1,1.07.28,5,5,0,0,1,.87.41,2.06,2.06,0,0,1,.52.37.84.84,0,0,1,.16.25,2,2,0,0,1,.08.28,2.42,2.42,0,0,1,0,.43c0,.17,0,.39,0,.64s0,.53,0,.74a4.2,4.2,0,0,1-.07.48.79.79,0,0,1-.12.29.31.31,0,0,1-.22.08,1,1,0,0,1-.43-.2,8,8,0,0,0-.73-.46,6,6,0,0,0-1-.44,3.53,3.53,0,0,0-1.25-.2,2.63,2.63,0,0,0-.93.15,1.89,1.89,0,0,0-.66.43,1.67,1.67,0,0,0-.39.67,2.19,2.19,0,0,0-.13.81,2,2,0,0,0,.29,1.11,3,3,0,0,0,.77.83,7.45,7.45,0,0,0,1.11.68l1.27.68a12.21,12.21,0,0,1,1.26.81,5.41,5.41,0,0,1,1.1,1.09,5.15,5.15,0,0,1,.79,1.49A6.32,6.32,0,0,1,365.61,344.48Z"/><path class="cls-1" d="M382.65,348.61a5.48,5.48,0,0,1,0,.75,2.64,2.64,0,0,1-.09.51.71.71,0,0,1-.15.29.31.31,0,0,1-.22.09h-7.35a.91.91,0,0,1-.68-.29,1.29,1.29,0,0,1-.29-.95V331.55a.42.42,0,0,1,.09-.27.5.5,0,0,1,.26-.2,3.21,3.21,0,0,1,.5-.11,5.61,5.61,0,0,1,.79-.05,5.5,5.5,0,0,1,.79.05,3,3,0,0,1,.5.11.64.64,0,0,1,.27.2.48.48,0,0,1,.08.27V347h5a.35.35,0,0,1,.22.08.68.68,0,0,1,.15.27,2.54,2.54,0,0,1,.09.49A5.48,5.48,0,0,1,382.65,348.61Z"/><path class="cls-1" d="M393.38,348.61a5.48,5.48,0,0,1,0,.75,2.64,2.64,0,0,1-.09.51.86.86,0,0,1-.15.29.33.33,0,0,1-.23.09h-7.34a.94.94,0,0,1-.69-.29,1.33,1.33,0,0,1-.28-.95V331.55a.48.48,0,0,1,.08-.27.58.58,0,0,1,.27-.2,3.21,3.21,0,0,1,.5-.11,5.61,5.61,0,0,1,.79-.05,5.5,5.5,0,0,1,.79.05,3.49,3.49,0,0,1,.5.11.64.64,0,0,1,.27.2.47.47,0,0,1,.07.27V347h5a.38.38,0,0,1,.23.08.84.84,0,0,1,.15.27,2.54,2.54,0,0,1,.09.49A5.48,5.48,0,0,1,393.38,348.61Z"/><path class="cls-1" d="M406.09,347.33a5.53,5.53,0,0,1,0,.63,4.09,4.09,0,0,1-.05.45,1.34,1.34,0,0,1-.1.32,1.75,1.75,0,0,1-.2.31,2.7,2.7,0,0,1-.52.43,6.09,6.09,0,0,1-1,.52,7.29,7.29,0,0,1-1.29.4,7,7,0,0,1-1.56.17,7.15,7.15,0,0,1-3-.61,6,6,0,0,1-2.26-1.82,8.87,8.87,0,0,1-1.42-3,16.12,16.12,0,0,1-.5-4.22,15.53,15.53,0,0,1,.55-4.35,9.61,9.61,0,0,1,1.52-3.2,6.47,6.47,0,0,1,2.35-2,6.73,6.73,0,0,1,3-.67,6.14,6.14,0,0,1,1.29.13,7.73,7.73,0,0,1,1.15.35,4.92,4.92,0,0,1,.94.5,3.1,3.1,0,0,1,.59.48,1.84,1.84,0,0,1,.23.34,1.75,1.75,0,0,1,.1.34,3.23,3.23,0,0,1,.05.49c0,.19,0,.42,0,.7s0,.55,0,.75a2.64,2.64,0,0,1-.09.51.66.66,0,0,1-.15.28.25.25,0,0,1-.19.09.76.76,0,0,1-.48-.26,6,6,0,0,0-.74-.58,5.63,5.63,0,0,0-1.07-.57,3.78,3.78,0,0,0-1.49-.27,3.18,3.18,0,0,0-1.71.47,4,4,0,0,0-1.28,1.34,6.66,6.66,0,0,0-.79,2.1,12.46,12.46,0,0,0-.28,2.78,13.29,13.29,0,0,0,.29,2.94,6.43,6.43,0,0,0,.83,2,3.47,3.47,0,0,0,1.31,1.2,3.65,3.65,0,0,0,1.71.39,4.21,4.21,0,0,0,1.5-.24,6,6,0,0,0,1.08-.55,7.16,7.16,0,0,0,.75-.53.82.82,0,0,1,.45-.24.3.3,0,0,1,.2.06.52.52,0,0,1,.13.24,4,4,0,0,1,.06.5A6.51,6.51,0,0,1,406.09,347.33Z"/><path class="cls-2" d="M13.89,250.75a4.61,4.61,0,0,1,1.92,2.6,15.79,15.79,0,0,1,.5,4.38v7.61H8a2.75,2.75,0,0,0-2,.87c-.58.57-.87,1.69-.87,3.33a33.69,33.69,0,0,0,.7,5.66l-2.92.13c-.24-1.24-.46-2.58-.66-4A29,29,0,0,1,2,267.65a7.89,7.89,0,0,1,.65-3.45,4.69,4.69,0,0,1,1.68-2,22.8,22.8,0,0,1-.46-4.48,24.53,24.53,0,0,1,.28-3.59,32.88,32.88,0,0,1,.64-3.32,7.62,7.62,0,0,1,2.05-.7,13.38,13.38,0,0,1,3-.3A7.64,7.64,0,0,1,13.89,250.75Zm-1,10.88v-4a5.55,5.55,0,0,0-.7-3.14,3.1,3.1,0,0,0-2.7-1,8.13,8.13,0,0,0-2,.24,26,26,0,0,0-.35,4,19.19,19.19,0,0,0,.11,2.12c.08.72.16,1.3.24,1.75Z"/><path class="cls-2" d="M19,260.29H22.7v5H19Z"/><path class="cls-2" d="M37.08,250.75a4.57,4.57,0,0,1,1.92,2.6,15.79,15.79,0,0,1,.5,4.38v7.61H31.2a2.77,2.77,0,0,0-2,.87c-.58.57-.86,1.69-.86,3.33A34.52,34.52,0,0,0,29,275.2l-2.92.13c-.24-1.24-.46-2.58-.66-4a29,29,0,0,1-.29-3.64,7.89,7.89,0,0,1,.65-3.45,4.69,4.69,0,0,1,1.68-2,22.8,22.8,0,0,1-.46-4.48,24.53,24.53,0,0,1,.28-3.59,32.88,32.88,0,0,1,.64-3.32,7.62,7.62,0,0,1,2.05-.7,13.38,13.38,0,0,1,3-.3A7.61,7.61,0,0,1,37.08,250.75Zm-1,10.88v-4a5.54,5.54,0,0,0-.71-3.14,3.1,3.1,0,0,0-2.7-1,8.13,8.13,0,0,0-1.95.24,27.33,27.33,0,0,0-.35,4c0,.69,0,1.4.11,2.12s.16,1.3.24,1.75Z"/><path class="cls-2" d="M42.21,260.29H45.9v5H42.21Z"/><path class="cls-2" d="M56.74,250.62a7.79,7.79,0,0,1,2.41,3.61,17.76,17.76,0,0,1,.85,5.91v5.2H48.36v-3.71h8.21v-1.1q0-4-1.25-5.65a3.69,3.69,0,0,0-3-1.69H49.74l-.26-3.2c.53-.14,1.13-.27,1.81-.39a10.58,10.58,0,0,1,1.85-.18A5.7,5.7,0,0,1,56.74,250.62Zm-6.39-8.11H53.5v4H50.35Z"/><path class="cls-2" d="M83.32,261.63v3.71h-9a10.15,10.15,0,0,1-4-.64,4.11,4.11,0,0,1-2.16-2.33,13.3,13.3,0,0,1-.7-4.91,13.1,13.1,0,0,1,.66-4.71,4.06,4.06,0,0,1,2.15-2.28,10.57,10.57,0,0,1,4.17-.65c1,0,2.1,0,3.43.12a26.61,26.61,0,0,1,2.82.27v11.42Zm-12.09-1.57a2.11,2.11,0,0,0,1.14,1.23,5.22,5.22,0,0,0,2.1.34h2.76v-7.95a23.08,23.08,0,0,0-2.69-.15,5.83,5.83,0,0,0-2.19.33A2.16,2.16,0,0,0,71.21,255a6.32,6.32,0,0,0-.36,2.42A7,7,0,0,0,71.23,260.06Zm.22-16.58h2.63v3.81H71.45Zm3.88,0H78v3.81H75.33Z"/><path class="cls-2" d="M97,250.75a4.58,4.58,0,0,1,1.93,2.6,15.79,15.79,0,0,1,.5,4.38v7.61H83.32v-3.71h4a22,22,0,0,1-.08-7.46,32.88,32.88,0,0,1,.64-3.32,7.62,7.62,0,0,1,2.05-.7,13.38,13.38,0,0,1,3-.3A7.55,7.55,0,0,1,97,250.75Zm-6.6,9.13c.08.72.16,1.3.25,1.75H96v-4a5.55,5.55,0,0,0-.7-3.14,3.1,3.1,0,0,0-2.7-1,8,8,0,0,0-1.94.24,25,25,0,0,0-.36,4A19.19,19.19,0,0,0,90.4,259.88Z"/><path class="cls-2" d="M108.69,261.63v3.71h-5.94V244h3.43v17.6Z"/><path class="cls-2" d="M125.74,261.63v3.71h-3.35a9.8,9.8,0,0,1-2.6-.35,11.31,11.31,0,0,1-2.47-1,11.35,11.35,0,0,1-2.45,1,9.14,9.14,0,0,1-2.47.35h-3.71v-3.71h3.64a7.15,7.15,0,0,0,1.74-.25,24,24,0,0,1-2.75-3.43,5.81,5.81,0,0,1-.94-3.14l-.07-2.68a12.53,12.53,0,0,1,3.14-1.65,10.83,10.83,0,0,1,3.84-.73,11.1,11.1,0,0,1,3.86.73,13.28,13.28,0,0,1,3.23,1.65l-.1,2.68a5.78,5.78,0,0,1-.93,3.14,26.6,26.6,0,0,1-2.75,3.43,7.24,7.24,0,0,0,1.76.25Zm-5.62-4.69a5.34,5.34,0,0,0,.89-2.71,9.87,9.87,0,0,0-3.69-.76,9.36,9.36,0,0,0-3.61.76,5.53,5.53,0,0,0,.92,2.8,9.38,9.38,0,0,0,2.72,2.77A10.26,10.26,0,0,0,120.12,256.94Z"/><path class="cls-2" d="M132.32,244v21.31h-6.58v-3.71h3.15V244Z"/><path class="cls-2" d="M136.41,244h3.43v21.31h-3.43Z"/><path class="cls-2" d="M167.55,250.12v15.22H156.49a15.68,15.68,0,0,1-3.78-.39,4.62,4.62,0,0,1-2.54-1.68,6.07,6.07,0,0,1-1-3.8,21.57,21.57,0,0,1,.24-3c.16-1.13.34-2.16.55-3.09l2.77.18-.19,1.92c-.17,1.48-.25,2.49-.25,3q0,3.11,3.79,3.11h8V250.12Zm-12.27-3.81h2.64v3.81h-2.64Zm3.9,0h2.63v3.81h-2.63Z"/><path class="cls-2" d="M171.39,244h3.43v21.31h-3.43Z"/><path class="cls-2" d="M188.51,265.34h-4.22a12.13,12.13,0,0,1-1.09,5.57,3.42,3.42,0,0,1-3.19,2c-.22,0-.84,0-1.87-.12v-3.65l.87.06a1.49,1.49,0,0,0,1.39-.87,5.42,5.42,0,0,0,.46-2.45V250.12h3.43v11.51h4.22Zm-7.53-22h3.16v4H181Z"/><path class="cls-2" d="M199.6,261.63v3.71H188.51v-3.71h3.82V250.12h3.43v11.51Zm-8.86,6.15h2.64v3.8h-2.64Zm3.89,0h2.64v3.8h-2.64Z"/><path class="cls-2" d="M221,261.63v3.71H199.6v-3.71h2.69v-.58A7.27,7.27,0,0,1,203,258a6,6,0,0,1,1.91-2.36,4.58,4.58,0,0,1,2.74-.89,4.47,4.47,0,0,1,2.71.89A6.11,6.11,0,0,1,212.2,258a7.07,7.07,0,0,1,.68,3v.61h2.41v-2.89c0-2.77-.63-4.67-1.88-5.73a6.44,6.44,0,0,0-4.27-1.58,15.81,15.81,0,0,0-2.39.22l-3.55.66-.28-3.26c1.3-.38,2.53-.7,3.69-.94a16.35,16.35,0,0,1,3.3-.37,8.12,8.12,0,0,1,4.78,1.39,8.59,8.59,0,0,1,3,3.87,15,15,0,0,1,1,5.74v2.89Zm-14.73-2.46a3.1,3.1,0,0,0-.53,1.82v.64h3.71V261a3,3,0,0,0-.54-1.8,1.61,1.61,0,0,0-1.33-.73A1.56,1.56,0,0,0,206.27,259.17Z"/><path class="cls-2" d="M236.72,261.63v3.71H221v-3.71h9.65V255.9a3.37,3.37,0,0,0-.47-2,1.88,1.88,0,0,0-1.63-.66l-4.1.19-1.3.06-.1-2.71a21.15,21.15,0,0,1,3.22-.72,22,22,0,0,1,3.2-.28A4.53,4.53,0,0,1,233,251a5.71,5.71,0,0,1,1.11,3.82v6.79Zm-9.4,6.15h3.15v4h-3.15Z"/><path class="cls-2" d="M247.8,261.63v3.71H236.72v-3.71h3.81V250.12H244v11.51Zm-8.86-18.15h2.64v3.81h-2.64Zm3.89,0h2.64v3.81h-2.64Z"/><path class="cls-2" d="M257,261.63v3.71h-9.27v-3.71h3.15V244h3.43v17.6Z"/><path class="cls-2" d="M263.62,244v21.31H257v-3.71h3.15V244Z"/><path class="cls-2" d="M288.22,261.63v3.71h-9a10.07,10.07,0,0,1-4-.64,4.11,4.11,0,0,1-2.16-2.33,13.27,13.27,0,0,1-.71-4.91,12.85,12.85,0,0,1,.67-4.71,4.09,4.09,0,0,1,2.15-2.28,10.57,10.57,0,0,1,4.17-.65c1,0,2.1,0,3.43.12a27.21,27.21,0,0,1,2.82.27v11.42Zm-12.09-1.57a2.15,2.15,0,0,0,1.13,1.23,5.29,5.29,0,0,0,2.1.34h2.77v-7.95a23.08,23.08,0,0,0-2.69-.15,5.79,5.79,0,0,0-2.19.33,2.16,2.16,0,0,0-1.14,1.18,6.35,6.35,0,0,0-.35,2.42A7,7,0,0,0,276.13,260.06Zm.21-16.58H279v3.81h-2.64Zm3.9,0h2.63v3.81h-2.63Z"/><path class="cls-2" d="M299.3,261.63v3.71H288.22v-3.71H292V250.12h3.44v11.51Zm-8.85,6.15h2.64v3.8h-2.64Zm3.89,0H297v3.8h-2.63Z"/><path class="cls-2" d="M306.55,250.12v15.22H299.3v-3.71h3.81V250.12Zm-3.25-6.79h3.14v4H303.3Z"/><path class="cls-2" d="M317.74,250.62a7.64,7.64,0,0,1,2.41,3.61,17.48,17.48,0,0,1,.86,5.91v5.2H309.36v-3.71h8.22v-1.1q0-4-1.26-5.65a3.66,3.66,0,0,0-3-1.69h-2.59l-.25-3.2c.53-.14,1.13-.27,1.81-.39a10.49,10.49,0,0,1,1.85-.18A5.67,5.67,0,0,1,317.74,250.62Z"/><path class="cls-2" d="M322.8,272.77v-3.65l.88.06a1.46,1.46,0,0,0,1.37-.87,5.29,5.29,0,0,0,.46-2.45V250.12H329v15a12.5,12.5,0,0,1-1.06,5.7,3.44,3.44,0,0,1-3.22,2C324.45,272.89,323.83,272.85,322.8,272.77Z"/><path class="cls-2" d="M345.05,244v21.31H331.51v-3.71h3.22V248.14h3.43v13.49h3.46V244Z"/><path class="cls-2" d="M348.87,244h3.42v21.31h-3.42Z"/><path class="cls-2" d="M377.15,261.63v3.71h-9a10.15,10.15,0,0,1-4-.64,4.11,4.11,0,0,1-2.16-2.33,13.27,13.27,0,0,1-.71-4.91,13.07,13.07,0,0,1,.67-4.71,4.09,4.09,0,0,1,2.15-2.28,10.63,10.63,0,0,1,4.18-.65c.95,0,2.1,0,3.42.12a27.21,27.21,0,0,1,2.82.27v11.42Zm-12.09-1.57a2.14,2.14,0,0,0,1.14,1.23,5.2,5.2,0,0,0,2.09.34h2.77v-7.95a23.08,23.08,0,0,0-2.69-.15,5.7,5.7,0,0,0-2.18.33A2.18,2.18,0,0,0,365,255a6.35,6.35,0,0,0-.35,2.42A7,7,0,0,0,365.06,260.06Zm.21-16.58h2.64v3.81h-2.64Zm3.9,0h2.64v3.81h-2.64Z"/><path class="cls-2" d="M391.42,250.55v14.79H377.15v-3.71h2.74a18.55,18.55,0,0,1-.43-4.21,10.56,10.56,0,0,1,.73-4.35,4.37,4.37,0,0,1,2.21-2.25,9.59,9.59,0,0,1,3.92-.67,29.57,29.57,0,0,1,3.76.21Zm-8.35,9.51c.09.48.2,1,.35,1.57H388v-7.77q-1.12-.09-1.77-.09a4.43,4.43,0,0,0-2.06.37,2,2,0,0,0-.94,1.28,14,14,0,0,0-.14,4.64Zm1-16.73h3.16v4h-3.16Z"/><path class="cls-2" d="M400.67,261.63v3.71h-5.93V244h3.43v17.6Z"/><path class="cls-2" d="M411.76,261.63v3.71H400.67v-3.71h3.82V250.12h3.43v11.51Zm-8.86,6.15h2.64v3.8H402.9Zm3.89,0h2.64v3.8h-2.64Z"/><path class="cls-2" d="M433.8,261.63v3.71h-22v-3.71h3.39V250.12h3.42V255a28.6,28.6,0,0,1,2.09-2.77,8.12,8.12,0,0,1,2.18-1.74,6.17,6.17,0,0,1,2.9-.66,4.85,4.85,0,0,1,4.58,2.35,11.07,11.07,0,0,1,1.33,5.53v3.93Zm-12.4-6.08a17.65,17.65,0,0,0-2.83,4.68v1.4h9.65v-3.14a6.67,6.67,0,0,0-.86-3.51,2.66,2.66,0,0,0-2.41-1.45A4.79,4.79,0,0,0,421.4,255.55Zm1-12.22h3.15v4h-3.15Z"/><path class="cls-2" d="M440.38,244v21.31H433.8v-3.71H437V244Z"/><path class="cls-2" d="M444.48,244h3.43v21.31h-3.43Z"/><path class="cls-2" d="M472.76,261.63v3.71h-9a10.15,10.15,0,0,1-4-.64,4.11,4.11,0,0,1-2.16-2.33,13.27,13.27,0,0,1-.71-4.91,13.07,13.07,0,0,1,.67-4.71,4.09,4.09,0,0,1,2.15-2.28,10.63,10.63,0,0,1,4.18-.65c.95,0,2.09,0,3.42.12a27.21,27.21,0,0,1,2.82.27v11.42Zm-12.09-1.57a2.15,2.15,0,0,0,1.13,1.23,5.29,5.29,0,0,0,2.1.34h2.77v-7.95a23.08,23.08,0,0,0-2.69-.15,5.7,5.7,0,0,0-2.18.33,2.15,2.15,0,0,0-1.15,1.18,6.35,6.35,0,0,0-.35,2.42A7,7,0,0,0,460.67,260.06Zm.21-16.58h2.64v3.81h-2.64Zm3.9,0h2.64v3.81h-2.64Z"/><path class="cls-2" d="M485.74,251.89a7,7,0,0,1,1.48,3,14.48,14.48,0,0,1,.37,3.07v7.43H472.76v-3.71h11.39v-3.75a4.92,4.92,0,0,0-.62-2.59,1.78,1.78,0,0,0-1.5-1h-6.86l-1.77-2.83,1.54-3.56a19.1,19.1,0,0,1,1.38-2.61c.58-.92,1.13-1.72,1.64-2.39l2.53,1.71a47.63,47.63,0,0,0-2.5,4.9l-.46,1.07h5.06A3.85,3.85,0,0,1,485.74,251.89Z"/><path class="cls-2" d="M500.51,265.34h-4.22a12,12,0,0,1-1.09,5.57,3.41,3.41,0,0,1-3.19,2q-.31,0-1.86-.12v-3.65l.87.06a1.48,1.48,0,0,0,1.38-.87,5.42,5.42,0,0,0,.46-2.45V250.12h3.43v11.51h4.22Z"/><path class="cls-2" d="M520.73,254.05c.14,1.34.22,2.28.22,2.83v8.46h-5.28a4.12,4.12,0,0,1-1.62-.33,4.46,4.46,0,0,1-1.27-.8,3.3,3.3,0,0,1-2.55,1.13h-9.71v-3.71h3.92v-10h3.43v10H509a1.63,1.63,0,0,0,1.5-.93,4.83,4.83,0,0,0,.53-2.39v-6.67h3.43v6.67a13.59,13.59,0,0,1-.26,2.77,2.47,2.47,0,0,0,.6.38,1.87,1.87,0,0,0,.76.17h1.92v-4.17c0-1.3,0-2.4-.06-3.31s-.1-2.2-.23-3.91l3-.15C520.42,251.39,520.58,252.71,520.73,254.05Zm-11.17-10.42h2.63v3.66h-2.63Zm2-4.2h2.46v3.41H511.6Zm1.85,4.2h2.63v3.66h-2.63Z"/><path class="cls-3" d="M241.39,136V111.5H205.45v42.64c0,10.79,1.4,17.47,4.23,20.1s8.56,4.12,17.28,4.42v5.8H163.62v-5.8q13-.45,17.27-4.42c2.75-2.63,4.19-9.31,4.19-20.1V66.92c0-10.7-1.36-17.29-4.16-19.94s-8.51-4-17.3-4.33V36.54H227v6.11c-8.72.33-14.49,1.71-17.28,4.33s-4.23,9.24-4.23,19.94v36.93h35.94V30.28c0-13.43-1.77-21.84-5.29-25.14Q231.56,1,218.69,0H141V221h68.33c9.87-3.75,20.65-8.69,25.06-19C239.13,190.94,241.39,169,241.39,136Z"/><path class="cls-3" d="M289.5,0c-8.56.66-14.3,2.37-17.32,5.14-3.46,3.3-5.29,11.71-5.29,25.14v73.57h30.57V66.92c0-10.7-1.39-17.29-4.14-19.94s-8.57-4-17.31-4.33V36.54h63.36v6.11C330.66,43,324.92,44.36,322,47c-2.72,2.65-4.15,9.24-4.15,19.94v87.22c0,10.79,1.46,17.47,4.24,20.1s8.6,4.12,17.25,4.42v5.8H276v-5.8q13-.45,17.2-4.42c2.83-2.63,4.25-9.31,4.25-20.1V111.5H266.89v23.08c0,31-4.24,53.38-12.94,67Q246.3,213.67,232,221H362V0Z"/></g></g></svg>